<?xml version="1.0" encoding="utf-8"?>
<!-- Generator: Adobe Illustrator 15.0.2, SVG Export Plug-In . SVG Version: 6.00 Build 0)  -->
<!DOCTYPE svg PUBLIC "-//W3C//DTD SVG 1.1//EN" "http://www.w3.org/Graphics/SVG/1.1/DTD/svg11.dtd">
<svg version="1.1" id="Calque_1" xmlns="http://www.w3.org/2000/svg" xmlns:xlink="http://www.w3.org/1999/xlink" x="0px" y="0px"
	 width="180px" height="1044px" viewBox="0 0 180 1044" enable-background="new 0 0 180 1044" xml:space="preserve">
<g>
	<rect y="0" fill="#F1BE41" fill-opacity="0" width="180" height="1044"/>
	<g>
		<g>
			<g>
				<g>
					<g>
						<path fill="#B7B7B7" d="M17.979,5.798l3.049,8.78l0.232,0.672h0.711h9.151l-7.307,5.777l-0.546,0.432l0.215,0.662l2.829,8.719
							l-7.786-5.193l-0.557-0.371l-0.556,0.373l-7.731,5.183l2.826-8.709l0.215-0.662l-0.547-0.432l-7.304-5.777h9.15h0.715
							l0.231-0.676L17.979,5.798 M17.973,2.731l-3.946,11.521H2l9.561,7.562L7.842,33.27l10.133-6.791l10.181,6.791l-3.718-11.457
							L34,14.251H21.973L17.973,2.731L17.973,2.731z"/>
					</g>
				</g>
			</g>
		</g>
	</g>
	<g>
		<g>
			<g>
				<g>
					<polygon fill="#B7B7B7" points="86.027,14.251 89.975,2.73 93.971,14.251 106,14.251 96.438,21.813 100.156,33.271 
						89.975,26.48 79.842,33.271 83.561,21.813 74,14.251 					"/>
				</g>
			</g>
		</g>
	</g>
	<g>
		<g>
			<g>
				<g>
					<polygon fill="#F1BE41" points="122.027,14.251 125.975,2.73 129.971,14.251 142,14.251 132.438,21.813 136.156,33.271 
						125.975,26.48 115.842,33.271 119.561,21.813 110,14.251 					"/>
				</g>
			</g>
		</g>
	</g>
	<g>
		<g>
			<g>
				<path fill="#F1BE41" d="M53.75,377.766l0.249-0.718l0.251,0.718H55l-0.597,0.472l0.231,0.715l-0.637-0.426l-0.637,0.426
					l0.234-0.715l-0.598-0.472H53.75z"/>
			</g>
		</g>
	</g>
	<g>
		<g>
			<g>
				<g>
					<polygon fill="#B7B7B7" points="53.998,339.618 53.375,341.413 51.5,341.413 52.992,342.594 52.406,344.381 53.998,343.317 
						55.59,344.381 55.008,342.594 56.5,341.413 54.625,341.413 					"/>
				</g>
			</g>
		</g>
	</g>
	<g>
		<g>
			<g>
				<g>
					<path fill="#B7B7B7" d="M54,305.232l0.057,0.161l0.233,0.67H55h0.123l-0.131,0.104l-0.547,0.432l0.216,0.662l0.037,0.111
						l-0.146-0.097l-0.557-0.372l-0.556,0.372l-0.138,0.092l0.033-0.104l0.219-0.663l-0.549-0.433l-0.131-0.104h0.123h0.711
						l0.233-0.672L54,305.232 M53.997,302.191L53,305.063h-3l2.389,1.888l-0.938,2.859l2.547-1.703l2.547,1.703l-0.932-2.859
						L58,305.063h-3L53.997,302.191L53.997,302.191z"/>
				</g>
			</g>
		</g>
	</g>
	<g>
		<g>
			<g>
				<g>
					<path fill="#B7B7B7" d="M53.999,267.803l0.433,1.238l0.233,0.67h0.71h1.247l-1.026,0.811l-0.547,0.432l0.217,0.663l0.387,1.184
						l-1.1-0.734l-0.556-0.371l-0.556,0.371l-1.094,0.73l0.387-1.179l0.218-0.663l-0.548-0.433l-1.025-0.811h1.246h0.711
						l0.233-0.673L53.999,267.803 M53.997,264.762l-1.372,3.949H48.5l3.284,2.596l-1.289,3.932l3.502-2.342l3.502,2.342
						l-1.282-3.932l3.283-2.596h-4.125L53.997,264.762L53.997,264.762z"/>
				</g>
			</g>
		</g>
	</g>
	<g>
		<g>
			<g>
				<g>
					<path fill="#B7B7B7" d="M53.999,230.373l0.808,2.314l0.233,0.671h0.71h2.372l-1.923,1.521l-0.547,0.432l0.217,0.663
						l0.736,2.254l-2.053-1.372l-0.557-0.372l-0.556,0.372l-2.048,1.369l0.736-2.25l0.219-0.663l-0.549-0.433l-1.923-1.521h2.372
						h0.711l0.233-0.672L53.999,230.373 M53.997,227.331l-1.747,5.027H47l4.182,3.305l-1.642,5.005l4.457-2.98l4.457,2.98
						l-1.635-5.005L61,232.359h-5.25L53.997,227.331L53.997,227.331z"/>
				</g>
			</g>
		</g>
	</g>
	<g>
		<g>
			<g>
				<g>
					<path fill="#B7B7B7" d="M53.998,192.945l1.184,3.394l0.232,0.671h0.711h3.498l-2.82,2.229l-0.547,0.434l0.217,0.661
						l1.088,3.326l-3.008-2.011l-0.556-0.372l-0.556,0.372l-3.003,2.008l1.089-3.321l0.218-0.663l-0.548-0.434l-2.82-2.229h3.498
						h0.711l0.233-0.672L53.998,192.945 M53.997,189.903l-2.122,6.105H45.5l5.077,4.014l-1.992,6.076l5.412-3.619l5.412,3.619
						l-1.985-6.076l5.076-4.014h-6.375L53.997,189.903L53.997,189.903z"/>
				</g>
			</g>
		</g>
	</g>
	<g>
		<g>
			<g>
				<g>
					<path fill="#B7B7B7" d="M53.998,155.515l1.559,4.471l0.232,0.671H56.5h4.623l-3.717,2.938l-0.547,0.433l0.217,0.662
						l1.438,4.397l-3.961-2.648l-0.556-0.372l-0.556,0.372l-3.958,2.646l1.44-4.396l0.217-0.663l-0.547-0.433l-3.718-2.938h4.623
						h0.711l0.233-0.672L53.998,155.515 M53.997,152.473l-2.497,7.184H44l5.975,4.724l-2.344,7.147l6.366-4.258l6.367,4.258
						l-2.338-7.147L64,159.656h-7.5L53.997,152.473L53.997,152.473z"/>
				</g>
			</g>
		</g>
	</g>
	<g>
		<g>
			<g>
				<g>
					<path fill="#B7B7B7" d="M53.998,118.086l1.934,5.548l0.232,0.671h0.711h5.748l-4.613,3.646l-0.547,0.434l0.217,0.662
						l1.789,5.47l-4.916-3.287l-0.556-0.372l-0.556,0.372l-4.913,3.285l1.792-5.467l0.218-0.663l-0.548-0.434l-4.613-3.646h5.748
						h0.711l0.233-0.672L53.998,118.086 M53.997,115.043l-2.872,8.262H42.5l6.87,5.432l-2.694,8.221l7.321-4.896l7.322,4.896
						l-2.688-8.221l6.869-5.432h-8.625L53.997,115.043L53.997,115.043z"/>
				</g>
			</g>
		</g>
	</g>
	<g>
		<g>
			<g>
				<g>
					<path fill="#B7B7B7" d="M53.998,80.656l2.309,6.627l0.232,0.671h0.711h6.873l-5.51,4.355l-0.547,0.434l0.217,0.661l2.141,6.542
						l-5.871-3.926l-0.556-0.372l-0.556,0.372l-5.868,3.924l2.144-6.539l0.219-0.662l-0.549-0.434l-5.51-4.355h6.873h0.711
						l0.233-0.673L53.998,80.656 M53.997,77.614l-3.247,9.341H41l7.768,6.141l-3.047,9.293l8.276-5.535l8.277,5.535l-3.041-9.293
						L67,86.954h-9.75L53.997,77.614L53.997,77.614z"/>
				</g>
			</g>
		</g>
	</g>
	<g>
		<g>
			<g>
				<g>
					<path fill="#B7B7B7" d="M53.998,43.227l2.684,7.704l0.232,0.671h0.711h7.998l-6.406,5.065L58.67,57.1l0.217,0.663l2.492,7.613
						l-6.826-4.564l-0.556-0.372l-0.556,0.372l-6.823,4.563l2.495-7.611l0.218-0.663l-0.548-0.433l-6.406-5.065h7.998h0.711
						l0.233-0.672L53.998,43.227 M53.997,40.184l-3.622,10.418H39.5l8.663,6.851l-3.397,10.364l9.231-6.174l9.231,6.174
						l-3.393-10.364l8.663-6.851H57.624L53.997,40.184L53.997,40.184z"/>
				</g>
			</g>
		</g>
	</g>
	<g>
		<g>
			<g>
				<g>
					<path fill="#B7B7B7" d="M53.998,5.797l3.059,8.782l0.232,0.671H58h9.123l-7.303,5.773l-0.547,0.434l0.217,0.663l2.843,8.685
						l-7.78-5.202l-0.556-0.372l-0.556,0.372l-7.778,5.201l2.847-8.684l0.219-0.663l-0.549-0.434l-7.303-5.773H50h0.711l0.233-0.672
						L53.998,5.797 M53.997,2.754L50,14.25H38l9.561,7.559l-3.75,11.438l10.188-6.813l10.188,6.813l-3.743-11.438l9.56-7.559h-12
						L53.997,2.754L53.997,2.754z"/>
				</g>
			</g>
		</g>
	</g>
	<g>
		<g>
			<g>
				<path fill="#F1BE41" d="M53.379,413.409l0.619-1.8l0.622,1.8h1.881l-1.497,1.188l0.584,1.793L54,415.325l-1.589,1.064
					l0.588-1.793l-1.497-1.188H53.379z"/>
			</g>
		</g>
	</g>
	<g>
		<g>
			<g>
				<path fill="#F1BE41" d="M53.001,449.057l0.996-2.876l0.993,2.876h3.011l-2.396,1.9l0.93,2.861l-2.536-1.7l-2.543,1.7
					l0.933-2.861l-2.388-1.9H53.001z"/>
			</g>
		</g>
	</g>
	<g>
		<g>
			<g>
				<path fill="#F1BE41" d="M52.633,484.7l1.363-3.958l1.365,3.958h4.138l-3.286,2.606l1.276,3.949l-3.493-2.341l-3.49,2.341
					l1.279-3.949l-3.286-2.606H52.633z"/>
			</g>
		</g>
	</g>
	<g>
		<g>
			<g>
				<path fill="#F1BE41" d="M52.258,520.344l1.736-5.029l1.744,5.029H61l-4.182,3.324l1.626,5.018l-4.45-2.979l-4.441,2.979
					l1.629-5.018L47,520.344H52.258z"/>
			</g>
		</g>
	</g>
	<g>
		<g>
			<g>
				<path fill="#F1BE41" d="M51.879,555.99l2.115-6.112l2.112,6.112H62.5l-5.082,4.03l1.977,6.104l-5.399-3.621l-5.403,3.621
					l1.991-6.104l-5.082-4.03H51.879z"/>
			</g>
		</g>
	</g>
	<g>
		<g>
			<g>
				<path fill="#F1BE41" d="M51.512,591.639l2.479-7.186l2.489,7.186h7.518l-5.979,4.746l2.326,7.161l-6.355-4.248l-6.346,4.248
					l2.332-7.161l-5.979-4.746H51.512z"/>
			</g>
		</g>
	</g>
	<g>
		<g>
			<g>
				<path fill="#F1BE41" d="M51.133,627.285l2.859-8.271l2.857,8.271h8.649l-6.87,5.453l2.67,8.246l-7.308-4.893l-7.308,4.893
					l2.686-8.246l-6.87-5.453H51.133z"/>
			</g>
		</g>
	</g>
	<g>
		<g>
			<g>
				<path fill="#F1BE41" d="M50.766,662.928l3.225-9.342l3.234,9.342h9.774l-7.766,6.172l3.018,9.313l-8.262-5.53l-8.25,5.53
					l3.024-9.313l-7.766-6.172H50.766z"/>
			</g>
		</g>
	</g>
	<g>
		<g>
			<g>
				<path fill="#F1BE41" d="M50.387,698.568l3.604-10.421l3.604,10.421h10.906l-8.666,6.885l3.368,10.401l-9.213-6.175l-9.211,6.175
					l3.387-10.401l-8.665-6.885H50.387z"/>
			</g>
		</g>
	</g>
	<g>
		<g>
			<g>
				<path fill="#F1BE41" d="M50.022,734.22l3.956-11.501l3.99,11.501h12.03l-9.563,7.594l3.719,11.468l-10.176-6.813l-10.146,6.813
					l3.728-11.468l-9.562-7.594H50.022z"/>
			</g>
		</g>
	</g>
	<g>
		<g>
			<g>
				<path fill="#F1BE41" d="M50.387,770.573l3.604-10.431l3.604,10.431h10.906l-8.666,6.883l3.368,10.403l-9.213-6.185l-9.211,6.185
					l3.387-10.403l-8.665-6.883H50.387z"/>
			</g>
		</g>
	</g>
	<g>
		<g>
			<g>
				<path fill="#F1BE41" d="M50.766,806.93l3.225-9.344l3.234,9.344h9.774l-7.766,6.17l3.018,9.313l-8.262-5.53l-8.25,5.53
					l3.024-9.313l-7.766-6.17H50.766z"/>
			</g>
		</g>
	</g>
	<g>
		<g>
			<g>
				<path fill="#F1BE41" d="M51.133,843.285l2.859-8.271l2.857,8.271h8.649l-6.87,5.453l2.67,8.246l-7.308-4.893l-7.308,4.893
					l2.686-8.246l-6.87-5.453H51.133z"/>
			</g>
		</g>
	</g>
	<g>
		<g>
			<g>
				<path fill="#F1BE41" d="M51.512,879.639l2.479-7.186l2.489,7.186h7.518l-5.979,4.746l2.326,7.161l-6.355-4.261l-6.346,4.261
					l2.332-7.161l-5.979-4.746H51.512z"/>
			</g>
		</g>
	</g>
	<g>
		<g>
			<g>
				<path fill="#F1BE41" d="M51.133,915.277l2.859-8.262l2.857,8.262h8.649l-6.87,5.463l2.67,8.246l-7.308-4.893l-7.308,4.893
					l2.686-8.246l-6.87-5.463H51.133z"/>
			</g>
		</g>
	</g>
	<g>
		<g>
			<g>
				<path fill="#F1BE41" d="M50.766,950.93l3.225-9.344l3.234,9.344h9.774l-7.766,6.17l3.018,9.314l-8.262-5.541l-8.25,5.541
					l3.024-9.314l-7.766-6.17H50.766z"/>
			</g>
		</g>
	</g>
	<g>
		<g>
			<g>
				<path fill="#F1BE41" d="M50.387,986.573l3.604-10.431l3.604,10.431h10.906l-8.666,6.883l3.368,10.403l-9.213-6.175l-9.211,6.175
					l3.387-10.403l-8.665-6.883H50.387z"/>
			</g>
		</g>
	</g>
	<g>
		<g>
			<g>
				<path fill="#F1BE41" d="M50.021,1022.22l3.957-11.501l3.99,11.501h12.029l-9.563,7.604l3.718,11.458l-10.175-6.813
					l-10.146,6.813l3.729-11.458l-9.563-7.604H50.021z"/>
			</g>
		</g>
	</g>
</g>
</svg>
